<?xml version="1.0" encoding="UTF-8" standalone="no"?>
<!DOCTYPE svg PUBLIC "-//W3C//DTD SVG 1.1//EN"
        "http://www.w3.org/Graphics/SVG/1.1/DTD/svg11.dtd">
<!-- Generated by graphviz version 2.43.0 (0)
 -->
<!-- Title: G Pages: 1 -->
<svg width="762pt" height="203pt"
     viewBox="0.00 0.00 761.50 203.20" xmlns="http://www.w3.org/2000/svg" xmlns:xlink="http://www.w3.org/1999/xlink">
    <g id="graph0" class="graph" transform="scale(1 1) rotate(0) translate(4 199.2)">
        <title>G</title>
        <style>.edge>path:hover{stroke-width:8}</style>
        <polygon fill="white" stroke="transparent" points="-4,4 -4,-199.2 757.5,-199.2 757.5,4 -4,4"/>
        <!-- blender_shaper_origin_lib_shape_curve_shape -->
        <g id="node1" class="node">
            <title>blender_shaper_origin_lib_shape_curve_shape</title>
            <style>.edge>path:hover{stroke-width:8}</style>
            <polygon fill="#932424" stroke="black"
                     points="174.26,-23.4 174.26,-56.2 123.29,-79.4 51.21,-79.4 0.25,-56.2 0.25,-23.4 51.21,-0.2 123.29,-0.2 174.26,-23.4"/>
            <text text-anchor="middle" x="87.25" y="-53.8" font-family="Helvetica,sans-Serif" font-size="10.00"
                  fill="#ffffff">blender_shaper_origin.
            </text>
            <text text-anchor="middle" x="87.25" y="-42.8" font-family="Helvetica,sans-Serif" font-size="10.00"
                  fill="#ffffff">lib.
            </text>
            <text text-anchor="middle" x="87.25" y="-31.8" font-family="Helvetica,sans-Serif" font-size="10.00"
                  fill="#ffffff">shape.
            </text>
            <text text-anchor="middle" x="87.25" y="-20.8" font-family="Helvetica,sans-Serif" font-size="10.00"
                  fill="#ffffff">curve_shape
            </text>
        </g>
        <!-- blender_shaper_origin_lib_shape___init__ -->
        <g id="node6" class="node">
            <title>blender_shaper_origin_lib_shape___init__</title>
            <style>.edge>path:hover{stroke-width:8}</style>
            <polygon fill="#ae1e1e" stroke="black"
                     points="174.26,-138.99 174.26,-171.8 123.29,-195 51.21,-195 0.25,-171.8 0.25,-138.99 51.21,-115.8 123.29,-115.8 174.26,-138.99"/>
            <text text-anchor="middle" x="87.25" y="-169.4" font-family="Helvetica,sans-Serif" font-size="10.00"
                  fill="#ffffff">blender_shaper_origin.
            </text>
            <text text-anchor="middle" x="87.25" y="-158.4" font-family="Helvetica,sans-Serif" font-size="10.00"
                  fill="#ffffff">lib.
            </text>
            <text text-anchor="middle" x="87.25" y="-147.4" font-family="Helvetica,sans-Serif" font-size="10.00"
                  fill="#ffffff">shape.
            </text>
            <text text-anchor="middle" x="87.25" y="-136.4" font-family="Helvetica,sans-Serif" font-size="10.00"
                  fill="#ffffff">__init__
            </text>
        </g>
        <!-- blender_shaper_origin_lib_shape_curve_shape&#45;&gt;blender_shaper_origin_lib_shape___init__ -->
        <g id="edge6" class="edge">
            <title>blender_shaper_origin_lib_shape_curve_shape&#45;&gt;blender_shaper_origin_lib_shape___init__</title>
            <style>.edge>path:hover{stroke-width:8}</style>
            <path fill="none" stroke="black" d="M80.81,-79.58C80.51,-87.98 80.43,-96.98 80.56,-105.71"/>
            <polygon fill="#932424" stroke="black" points="77.07,-105.89 80.82,-115.8 84.06,-105.71 77.07,-105.89"/>
        </g>
        <!-- blender_shaper_origin_lib_object_types_preview -->
        <g id="node2" class="node">
            <title>blender_shaper_origin_lib_object_types_preview</title>
            <style>.edge>path:hover{stroke-width:8}</style>
            <polygon fill="#7a1e1e" stroke="black"
                     points="367.26,-23.4 367.26,-56.2 316.29,-79.4 244.21,-79.4 193.25,-56.2 193.25,-23.4 244.21,-0.2 316.29,-0.2 367.26,-23.4"/>
            <text text-anchor="middle" x="280.25" y="-53.8" font-family="Helvetica,sans-Serif" font-size="10.00"
                  fill="#ffffff">blender_shaper_origin.
            </text>
            <text text-anchor="middle" x="280.25" y="-42.8" font-family="Helvetica,sans-Serif" font-size="10.00"
                  fill="#ffffff">lib.
            </text>
            <text text-anchor="middle" x="280.25" y="-31.8" font-family="Helvetica,sans-Serif" font-size="10.00"
                  fill="#ffffff">object_types.
            </text>
            <text text-anchor="middle" x="280.25" y="-20.8" font-family="Helvetica,sans-Serif" font-size="10.00"
                  fill="#ffffff">preview
            </text>
        </g>
        <!-- blender_shaper_origin_lib_object_types_bounding -->
        <g id="node7" class="node">
            <title>blender_shaper_origin_lib_object_types_bounding</title>
            <style>.edge>path:hover{stroke-width:8}</style>
            <polygon fill="#8b1818" stroke="black"
                     points="367.26,-138.99 367.26,-171.8 316.29,-195 244.21,-195 193.25,-171.8 193.25,-138.99 244.21,-115.8 316.29,-115.8 367.26,-138.99"/>
            <text text-anchor="middle" x="280.25" y="-169.4" font-family="Helvetica,sans-Serif" font-size="10.00"
                  fill="#ffffff">blender_shaper_origin.
            </text>
            <text text-anchor="middle" x="280.25" y="-158.4" font-family="Helvetica,sans-Serif" font-size="10.00"
                  fill="#ffffff">lib.
            </text>
            <text text-anchor="middle" x="280.25" y="-147.4" font-family="Helvetica,sans-Serif" font-size="10.00"
                  fill="#ffffff">object_types.
            </text>
            <text text-anchor="middle" x="280.25" y="-136.4" font-family="Helvetica,sans-Serif" font-size="10.00"
                  fill="#ffffff">bounding
            </text>
        </g>
        <!-- blender_shaper_origin_lib_object_types_preview&#45;&gt;blender_shaper_origin_lib_object_types_bounding -->
        <g id="edge4" class="edge">
            <title>blender_shaper_origin_lib_object_types_preview&#45;&gt;blender_shaper_origin_lib_object_types_bounding</title>
            <style>.edge>path:hover{stroke-width:8}</style>
            <path fill="none" stroke="black" d="M273.81,-79.58C273.51,-87.98 273.43,-96.98 273.56,-105.71"/>
            <polygon fill="#7a1e1e" stroke="black" points="270.07,-105.89 273.82,-115.8 277.06,-105.71 270.07,-105.89"/>
        </g>
        <!-- blender_shaper_origin_lib_body_mesh_body -->
        <g id="node3" class="node">
            <title>blender_shaper_origin_lib_body_mesh_body</title>
            <style>.edge>path:hover{stroke-width:8}</style>
            <polygon fill="#a32828" stroke="black"
                     points="560.26,-23.4 560.26,-56.2 509.29,-79.4 437.21,-79.4 386.25,-56.2 386.25,-23.4 437.21,-0.2 509.29,-0.2 560.26,-23.4"/>
            <text text-anchor="middle" x="473.25" y="-53.8" font-family="Helvetica,sans-Serif" font-size="10.00"
                  fill="#ffffff">blender_shaper_origin.
            </text>
            <text text-anchor="middle" x="473.25" y="-42.8" font-family="Helvetica,sans-Serif" font-size="10.00"
                  fill="#ffffff">lib.
            </text>
            <text text-anchor="middle" x="473.25" y="-31.8" font-family="Helvetica,sans-Serif" font-size="10.00"
                  fill="#ffffff">body.
            </text>
            <text text-anchor="middle" x="473.25" y="-20.8" font-family="Helvetica,sans-Serif" font-size="10.00"
                  fill="#ffffff">mesh_body
            </text>
        </g>
        <!-- blender_shaper_origin_lib_body___init__ -->
        <g id="node5" class="node">
            <title>blender_shaper_origin_lib_body___init__</title>
            <style>.edge>path:hover{stroke-width:8}</style>
            <polygon fill="#8a2e2e" stroke="black"
                     points="560.26,-138.99 560.26,-171.8 509.29,-195 437.21,-195 386.25,-171.8 386.25,-138.99 437.21,-115.8 509.29,-115.8 560.26,-138.99"/>
            <text text-anchor="middle" x="473.25" y="-169.4" font-family="Helvetica,sans-Serif" font-size="10.00"
                  fill="#ffffff">blender_shaper_origin.
            </text>
            <text text-anchor="middle" x="473.25" y="-158.4" font-family="Helvetica,sans-Serif" font-size="10.00"
                  fill="#ffffff">lib.
            </text>
            <text text-anchor="middle" x="473.25" y="-147.4" font-family="Helvetica,sans-Serif" font-size="10.00"
                  fill="#ffffff">body.
            </text>
            <text text-anchor="middle" x="473.25" y="-136.4" font-family="Helvetica,sans-Serif" font-size="10.00"
                  fill="#ffffff">__init__
            </text>
        </g>
        <!-- blender_shaper_origin_lib_body_mesh_body&#45;&gt;blender_shaper_origin_lib_body___init__ -->
        <g id="edge2" class="edge">
            <title>blender_shaper_origin_lib_body_mesh_body&#45;&gt;blender_shaper_origin_lib_body___init__</title>
            <style>.edge>path:hover{stroke-width:8}</style>
            <path fill="none" stroke="black" d="M466.81,-79.58C466.51,-87.98 466.43,-96.98 466.56,-105.71"/>
            <polygon fill="#a32828" stroke="black" points="463.07,-105.89 466.82,-115.8 470.06,-105.71 463.07,-105.89"/>
        </g>
        <!-- blender_shaper_origin_properties -->
        <g id="node4" class="node">
            <title>blender_shaper_origin_properties</title>
            <style>.edge>path:hover{stroke-width:8}</style>
            <polygon fill="#b83d3d" stroke="black"
                     points="753.26,-30.3 753.26,-49.29 702.29,-62.72 630.21,-62.72 579.25,-49.29 579.25,-30.3 630.21,-16.88 702.29,-16.88 753.26,-30.3"/>
            <text text-anchor="middle" x="666.25" y="-42.8" font-family="Helvetica,sans-Serif" font-size="10.00"
                  fill="#ffffff">blender_shaper_origin.
            </text>
            <text text-anchor="middle" x="666.25" y="-31.8" font-family="Helvetica,sans-Serif" font-size="10.00"
                  fill="#ffffff">properties
            </text>
        </g>
        <!-- blender_shaper_origin -->
        <g id="node8" class="node">
            <title>blender_shaper_origin</title>
            <style>.edge>path:hover{stroke-width:8}</style>
            <polygon fill="#ac2b2b" stroke="black"
                     points="737.2,-147.94 737.2,-162.85 695.64,-173.4 636.86,-173.4 595.3,-162.85 595.3,-147.94 636.86,-137.4 695.64,-137.4 737.2,-147.94"/>
            <text text-anchor="middle" x="666.25" y="-152.9" font-family="Helvetica,sans-Serif" font-size="10.00"
                  fill="#ffffff">blender_shaper_origin
            </text>
        </g>
        <!-- blender_shaper_origin_properties&#45;&gt;blender_shaper_origin -->
        <g id="edge1" class="edge">
            <title>blender_shaper_origin_properties&#45;&gt;blender_shaper_origin</title>
            <style>.edge>path:hover{stroke-width:8}</style>
            <path fill="none" stroke="black" d="M660.77,-62.97C659.22,-81.28 659.09,-107.34 660.38,-126.96"/>
            <polygon fill="#b83d3d" stroke="black"
                     points="656.91,-127.44 661.24,-137.11 663.88,-126.85 656.91,-127.44"/>
        </g>
        <!-- blender_shaper_origin_lib_body___init__&#45;&gt;blender_shaper_origin_lib_body_mesh_body -->
        <g id="edge3" class="edge">
            <title>blender_shaper_origin_lib_body___init__&#45;&gt;blender_shaper_origin_lib_body_mesh_body</title>
            <style>.edge>path:hover{stroke-width:8}</style>
            <path fill="none" stroke="black" d="M479.68,-115.8C479.99,-107.4 480.07,-98.4 479.94,-89.66"/>
            <polygon fill="#8a2e2e" stroke="black" points="483.44,-89.48 479.69,-79.58 476.44,-89.66 483.44,-89.48"/>
        </g>
        <!-- blender_shaper_origin_lib_shape___init__&#45;&gt;blender_shaper_origin_lib_shape_curve_shape -->
        <g id="edge7" class="edge">
            <title>blender_shaper_origin_lib_shape___init__&#45;&gt;blender_shaper_origin_lib_shape_curve_shape</title>
            <style>.edge>path:hover{stroke-width:8}</style>
            <path fill="none" stroke="black" d="M93.68,-115.8C93.99,-107.4 94.07,-98.4 93.94,-89.66"/>
            <polygon fill="#ae1e1e" stroke="black" points="97.44,-89.48 93.69,-79.58 90.44,-89.66 97.44,-89.48"/>
        </g>
        <!-- blender_shaper_origin_lib_object_types_bounding&#45;&gt;blender_shaper_origin_lib_object_types_preview -->
        <g id="edge5" class="edge">
            <title>blender_shaper_origin_lib_object_types_bounding&#45;&gt;blender_shaper_origin_lib_object_types_preview</title>
            <style>.edge>path:hover{stroke-width:8}</style>
            <path fill="none" stroke="black" d="M286.68,-115.8C286.99,-107.4 287.07,-98.4 286.94,-89.66"/>
            <polygon fill="#8b1818" stroke="black" points="290.44,-89.48 286.69,-79.58 283.44,-89.66 290.44,-89.48"/>
        </g>
        <!-- blender_shaper_origin&#45;&gt;blender_shaper_origin_properties -->
        <g id="edge8" class="edge">
            <title>blender_shaper_origin&#45;&gt;blender_shaper_origin_properties</title>
            <style>.edge>path:hover{stroke-width:8}</style>
            <path fill="none" stroke="black" d="M671.27,-137.11C673.1,-120.13 673.48,-93.82 672.4,-72.99"/>
            <polygon fill="#ac2b2b" stroke="black" points="675.89,-72.72 671.73,-62.97 668.91,-73.18 675.89,-72.72"/>
        </g>
    </g>
</svg>
