<?xml version="1.0" encoding="UTF-8" standalone="no"?>
<!DOCTYPE svg PUBLIC "-//W3C//DTD SVG 1.1//EN"
        "http://www.w3.org/Graphics/SVG/1.1/DTD/svg11.dtd">
<!-- Generated by graphviz version 2.43.0 (0)
 -->
<!-- Title: G Pages: 1 -->
<svg width="1013pt" height="903pt"
     viewBox="0.00 0.00 1012.50 903.43" xmlns="http://www.w3.org/2000/svg" xmlns:xlink="http://www.w3.org/1999/xlink">
    <g id="graph0" class="graph" transform="scale(1 1) rotate(0) translate(4 899.43)">
        <title>G</title>
        <style>.edge>path:hover{stroke-width:8}</style>
        <polygon fill="white" stroke="transparent" points="-4,4 -4,-899.43 1008.5,-899.43 1008.5,4 -4,4"/>
        <!-- blender_shaper_origin_lib_object_types_cut -->
        <g id="node1" class="node">
            <title>blender_shaper_origin_lib_object_types_cut</title>
            <style>.edge>path:hover{stroke-width:8}</style>
            <polygon fill="#dd1818" stroke="black"
                     points="401.26,-23.4 401.26,-56.2 350.29,-79.4 278.21,-79.4 227.25,-56.2 227.25,-23.4 278.21,-0.2 350.29,-0.2 401.26,-23.4"/>
            <text text-anchor="middle" x="314.25" y="-53.8" font-family="Helvetica,sans-Serif" font-size="10.00"
                  fill="#ffffff">blender_shaper_origin.
            </text>
            <text text-anchor="middle" x="314.25" y="-42.8" font-family="Helvetica,sans-Serif" font-size="10.00"
                  fill="#ffffff">lib.
            </text>
            <text text-anchor="middle" x="314.25" y="-31.8" font-family="Helvetica,sans-Serif" font-size="10.00"
                  fill="#ffffff">object_types.
            </text>
            <text text-anchor="middle" x="314.25" y="-20.8" font-family="Helvetica,sans-Serif" font-size="10.00"
                  fill="#ffffff">cut
            </text>
        </g>
        <!-- blender_shaper_origin_lib_object_types_preview -->
        <g id="node7" class="node">
            <title>blender_shaper_origin_lib_object_types_preview</title>
            <style>.edge>path:hover{stroke-width:8}</style>
            <polygon fill="#832020" stroke="black"
                     points="367.26,-138.99 367.26,-171.8 316.29,-195 244.21,-195 193.25,-171.8 193.25,-138.99 244.21,-115.8 316.29,-115.8 367.26,-138.99"/>
            <text text-anchor="middle" x="280.25" y="-169.4" font-family="Helvetica,sans-Serif" font-size="10.00"
                  fill="#ffffff">blender_shaper_origin.
            </text>
            <text text-anchor="middle" x="280.25" y="-158.4" font-family="Helvetica,sans-Serif" font-size="10.00"
                  fill="#ffffff">lib.
            </text>
            <text text-anchor="middle" x="280.25" y="-147.4" font-family="Helvetica,sans-Serif" font-size="10.00"
                  fill="#ffffff">object_types.
            </text>
            <text text-anchor="middle" x="280.25" y="-136.4" font-family="Helvetica,sans-Serif" font-size="10.00"
                  fill="#ffffff">preview
            </text>
        </g>
        <!-- blender_shaper_origin_lib_object_types_cut&#45;&gt;blender_shaper_origin_lib_object_types_preview -->
        <g id="edge8" class="edge">
            <title>blender_shaper_origin_lib_object_types_cut&#45;&gt;blender_shaper_origin_lib_object_types_preview
            </title>
            <style>.edge>path:hover{stroke-width:8}</style>
            <path fill="none" stroke="black" d="M302.65,-79.58C300.1,-88.07 297.38,-97.17 294.74,-106"/>
            <polygon fill="#dd1818" stroke="black" points="291.32,-105.21 291.81,-115.8 298.03,-107.22 291.32,-105.21"/>
        </g>
        <!-- blender_shaper_origin_lib_export -->
        <g id="node2" class="node">
            <title>blender_shaper_origin_lib_export</title>
            <style>.edge>path:hover{stroke-width:8}</style>
            <polygon fill="#8a2e2e" stroke="black"
                     points="612.26,-26.85 612.26,-52.75 561.29,-71.06 489.21,-71.06 438.25,-52.75 438.25,-26.85 489.21,-8.54 561.29,-8.54 612.26,-26.85"/>
            <text text-anchor="middle" x="525.25" y="-48.3" font-family="Helvetica,sans-Serif" font-size="10.00"
                  fill="#ffffff">blender_shaper_origin.
            </text>
            <text text-anchor="middle" x="525.25" y="-37.3" font-family="Helvetica,sans-Serif" font-size="10.00"
                  fill="#ffffff">lib.
            </text>
            <text text-anchor="middle" x="525.25" y="-26.3" font-family="Helvetica,sans-Serif" font-size="10.00"
                  fill="#ffffff">export
            </text>
        </g>
        <!-- blender_shaper_origin___init__ -->
        <g id="node9" class="node">
            <title>blender_shaper_origin___init__</title>
            <style>.edge>path:hover{stroke-width:8}</style>
            <polygon fill="#964040" stroke="black"
                     points="597.26,-244.66 597.26,-263.65 546.29,-277.08 474.21,-277.08 423.25,-263.65 423.25,-244.66 474.21,-231.24 546.29,-231.24 597.26,-244.66"/>
            <text text-anchor="middle" x="510.25" y="-257.16" font-family="Helvetica,sans-Serif" font-size="10.00"
                  fill="#ffffff">blender_shaper_origin.
            </text>
            <text text-anchor="middle" x="510.25" y="-246.16" font-family="Helvetica,sans-Serif" font-size="10.00"
                  fill="#ffffff">__init__
            </text>
        </g>
        <!-- blender_shaper_origin_lib_export&#45;&gt;blender_shaper_origin___init__ -->
        <g id="edge2" class="edge">
            <title>blender_shaper_origin_lib_export&#45;&gt;blender_shaper_origin___init__</title>
            <style>.edge>path:hover{stroke-width:8}</style>
            <path fill="none" stroke="black" d="M523.1,-71.22C520.29,-111.02 515.39,-180.44 512.52,-221.05"/>
            <polygon fill="#8a2e2e" stroke="black" points="509.02,-220.98 511.8,-231.2 516,-221.47 509.02,-220.98"/>
        </g>
        <!-- blender_shaper_origin_properties -->
        <g id="node3" class="node">
            <title>blender_shaper_origin_properties</title>
            <style>.edge>path:hover{stroke-width:8}</style>
            <polygon fill="#c43131" stroke="black"
                     points="811.26,-30.3 811.26,-49.29 760.29,-62.72 688.21,-62.72 637.25,-49.29 637.25,-30.3 688.21,-16.88 760.29,-16.88 811.26,-30.3"/>
            <text text-anchor="middle" x="724.25" y="-42.8" font-family="Helvetica,sans-Serif" font-size="10.00"
                  fill="#ffffff">blender_shaper_origin.
            </text>
            <text text-anchor="middle" x="724.25" y="-31.8" font-family="Helvetica,sans-Serif" font-size="10.00"
                  fill="#ffffff">properties
            </text>
        </g>
        <!-- blender_shaper_origin -->
        <g id="node11" class="node">
            <title>blender_shaper_origin</title>
            <style>.edge>path:hover{stroke-width:8}</style>
            <polygon fill="#d10505" stroke="black"
                     points="795.2,-147.94 795.2,-162.85 753.64,-173.4 694.86,-173.4 653.3,-162.85 653.3,-147.94 694.86,-137.4 753.64,-137.4 795.2,-147.94"/>
            <text text-anchor="middle" x="724.25" y="-152.9" font-family="Helvetica,sans-Serif" font-size="10.00"
                  fill="#ffffff">blender_shaper_origin
            </text>
        </g>
        <!-- blender_shaper_origin_properties&#45;&gt;blender_shaper_origin -->
        <g id="edge1" class="edge">
            <title>blender_shaper_origin_properties&#45;&gt;blender_shaper_origin</title>
            <style>.edge>path:hover{stroke-width:8}</style>
            <path fill="none" stroke="black" d="M718.77,-62.97C717.22,-81.28 717.09,-107.34 718.38,-126.96"/>
            <polygon fill="#c43131" stroke="black"
                     points="714.91,-127.44 719.24,-137.11 721.88,-126.85 714.91,-127.44"/>
        </g>
        <!-- blender_shaper_origin_lib_object_types_reference -->
        <g id="node4" class="node">
            <title>blender_shaper_origin_lib_object_types_reference</title>
            <style>.edge>path:hover{stroke-width:8}</style>
            <polygon fill="#c82323" stroke="black"
                     points="367.26,-587.87 367.26,-620.68 316.29,-643.87 244.21,-643.87 193.25,-620.68 193.25,-587.87 244.21,-564.68 316.29,-564.68 367.26,-587.87"/>
            <text text-anchor="middle" x="280.25" y="-618.28" font-family="Helvetica,sans-Serif" font-size="10.00"
                  fill="#ffffff">blender_shaper_origin.
            </text>
            <text text-anchor="middle" x="280.25" y="-607.28" font-family="Helvetica,sans-Serif" font-size="10.00"
                  fill="#ffffff">lib.
            </text>
            <text text-anchor="middle" x="280.25" y="-596.28" font-family="Helvetica,sans-Serif" font-size="10.00"
                  fill="#ffffff">object_types.
            </text>
            <text text-anchor="middle" x="280.25" y="-585.28" font-family="Helvetica,sans-Serif" font-size="10.00"
                  fill="#ffffff">reference
            </text>
        </g>
        <!-- blender_shaper_origin_lib_object_types_bounding -->
        <g id="node14" class="node">
            <title>blender_shaper_origin_lib_object_types_bounding</title>
            <style>.edge>path:hover{stroke-width:8}</style>
            <polygon fill="#b81414" stroke="black"
                     points="367.26,-703.47 367.26,-736.28 316.29,-759.47 244.21,-759.47 193.25,-736.28 193.25,-703.47 244.21,-680.27 316.29,-680.27 367.26,-703.47"/>
            <text text-anchor="middle" x="280.25" y="-733.87" font-family="Helvetica,sans-Serif" font-size="10.00"
                  fill="#ffffff">blender_shaper_origin.
            </text>
            <text text-anchor="middle" x="280.25" y="-722.87" font-family="Helvetica,sans-Serif" font-size="10.00"
                  fill="#ffffff">lib.
            </text>
            <text text-anchor="middle" x="280.25" y="-711.87" font-family="Helvetica,sans-Serif" font-size="10.00"
                  fill="#ffffff">object_types.
            </text>
            <text text-anchor="middle" x="280.25" y="-700.87" font-family="Helvetica,sans-Serif" font-size="10.00"
                  fill="#ffffff">bounding
            </text>
        </g>
        <!-- blender_shaper_origin_lib_object_types_reference&#45;&gt;blender_shaper_origin_lib_object_types_bounding -->
        <g id="edge6" class="edge">
            <title>blender_shaper_origin_lib_object_types_reference&#45;&gt;blender_shaper_origin_lib_object_types_bounding</title>
            <style>.edge>path:hover{stroke-width:8}</style>
            <path fill="none" stroke="black" d="M280.25,-644.05C280.25,-652.46 280.25,-661.46 280.25,-670.19"/>
            <polygon fill="#c82323" stroke="black"
                     points="276.75,-670.27 280.25,-680.27 283.75,-670.27 276.75,-670.27"/>
        </g>
        <!-- blender_shaper_origin_operators -->
        <g id="node5" class="node">
            <title>blender_shaper_origin_operators</title>
            <style>.edge>path:hover{stroke-width:8}</style>
            <polygon fill="#8b2222" stroke="black"
                     points="654.26,-335 654.26,-353.99 603.29,-367.42 531.21,-367.42 480.25,-353.99 480.25,-335 531.21,-321.58 603.29,-321.58 654.26,-335"/>
            <text text-anchor="middle" x="567.25" y="-347.5" font-family="Helvetica,sans-Serif" font-size="10.00"
                  fill="#ffffff">blender_shaper_origin.
            </text>
            <text text-anchor="middle" x="567.25" y="-336.5" font-family="Helvetica,sans-Serif" font-size="10.00"
                  fill="#ffffff">operators
            </text>
        </g>
        <!-- blender_shaper_origin_operators&#45;&gt;blender_shaper_origin_lib_export -->
        <g id="edge5" class="edge">
            <title>blender_shaper_origin_operators&#45;&gt;blender_shaper_origin_lib_export</title>
            <style>.edge>path:hover{stroke-width:8}</style>
            <path fill="none" stroke="black"
                  d="M584.2,-321.51C592.62,-309.18 601.9,-293.11 606.25,-277.12 611.61,-257.42 610.33,-251.19 606.25,-231.2 595.07,-176.36 567.5,-117.75 547.63,-80.27"/>
            <polygon fill="#8b2222" stroke="black" points="550.58,-78.36 542.76,-71.21 544.41,-81.68 550.58,-78.36"/>
        </g>
        <!-- blender_shaper_origin_lib_project -->
        <g id="node6" class="node">
            <title>blender_shaper_origin_lib_project</title>
            <style>.edge>path:hover{stroke-width:8}</style>
            <polygon fill="#ca1616" stroke="black"
                     points="425.26,-851.1 425.26,-877 374.29,-895.31 302.21,-895.31 251.25,-877 251.25,-851.1 302.21,-832.79 374.29,-832.79 425.26,-851.1"/>
            <text text-anchor="middle" x="338.25" y="-872.55" font-family="Helvetica,sans-Serif" font-size="10.00"
                  fill="#ffffff">blender_shaper_origin.
            </text>
            <text text-anchor="middle" x="338.25" y="-861.55" font-family="Helvetica,sans-Serif" font-size="10.00"
                  fill="#ffffff">lib.
            </text>
            <text text-anchor="middle" x="338.25" y="-850.55" font-family="Helvetica,sans-Serif" font-size="10.00"
                  fill="#ffffff">project
            </text>
        </g>
        <!-- blender_shaper_origin_lib_project&#45;&gt;blender_shaper_origin_lib_object_types_cut -->
        <g id="edge7" class="edge">
            <title>blender_shaper_origin_lib_project&#45;&gt;blender_shaper_origin_lib_object_types_cut</title>
            <style>.edge>path:hover{stroke-width:8}</style>
            <path fill="none" stroke="black"
                  d="M358.35,-832.56C374.76,-804.68 395.25,-761.7 395.25,-720.87 395.25,-253.16 395.25,-253.16 395.25,-253.16 395.25,-191.44 401.12,-172.09 376.25,-115.6 371.83,-105.55 365.65,-95.78 358.89,-86.79"/>
            <polygon fill="#ca1616" stroke="black" points="361.5,-84.45 352.55,-78.77 356.01,-88.79 361.5,-84.45"/>
        </g>
        <!-- blender_shaper_origin_lib_shape -->
        <g id="node13" class="node">
            <title>blender_shaper_origin_lib_shape</title>
            <style>.edge>path:hover{stroke-width:8}</style>
            <polygon fill="#db0505" stroke="black"
                     points="213.26,-331.55 213.26,-357.45 162.29,-375.76 90.21,-375.76 39.25,-357.45 39.25,-331.55 90.21,-313.24 162.29,-313.24 213.26,-331.55"/>
            <text text-anchor="middle" x="126.25" y="-353" font-family="Helvetica,sans-Serif" font-size="10.00"
                  fill="#ffffff">blender_shaper_origin.
            </text>
            <text text-anchor="middle" x="126.25" y="-342" font-family="Helvetica,sans-Serif" font-size="10.00"
                  fill="#ffffff">lib.
            </text>
            <text text-anchor="middle" x="126.25" y="-331" font-family="Helvetica,sans-Serif" font-size="10.00"
                  fill="#ffffff">shape
            </text>
        </g>
        <!-- blender_shaper_origin_lib_object_types_preview&#45;&gt;blender_shaper_origin_lib_shape -->
        <g id="edge12" class="edge">
            <title>blender_shaper_origin_lib_object_types_preview&#45;&gt;blender_shaper_origin_lib_shape</title>
            <style>.edge>path:hover{stroke-width:8}</style>
            <path fill="none" stroke="black" d="M248.34,-195.16C221.78,-227.43 184.18,-273.12 157.74,-305.25"/>
            <polygon fill="#832020" stroke="black" points="154.92,-303.16 151.27,-313.1 160.33,-307.61 154.92,-303.16"/>
        </g>
        <!-- blender_shaper_origin_lib_body_mesh_body -->
        <g id="node8" class="node">
            <title>blender_shaper_origin_lib_body_mesh_body</title>
            <style>.edge>path:hover{stroke-width:8}</style>
            <polygon fill="#913030" stroke="black"
                     points="1004.26,-23.4 1004.26,-56.2 953.29,-79.4 881.21,-79.4 830.25,-56.2 830.25,-23.4 881.21,-0.2 953.29,-0.2 1004.26,-23.4"/>
            <text text-anchor="middle" x="917.25" y="-53.8" font-family="Helvetica,sans-Serif" font-size="10.00"
                  fill="#ffffff">blender_shaper_origin.
            </text>
            <text text-anchor="middle" x="917.25" y="-42.8" font-family="Helvetica,sans-Serif" font-size="10.00"
                  fill="#ffffff">lib.
            </text>
            <text text-anchor="middle" x="917.25" y="-31.8" font-family="Helvetica,sans-Serif" font-size="10.00"
                  fill="#ffffff">body.
            </text>
            <text text-anchor="middle" x="917.25" y="-20.8" font-family="Helvetica,sans-Serif" font-size="10.00"
                  fill="#ffffff">mesh_body
            </text>
        </g>
        <!-- blender_shaper_origin_lib_body -->
        <g id="node10" class="node">
            <title>blender_shaper_origin_lib_body</title>
            <style>.edge>path:hover{stroke-width:8}</style>
            <polygon fill="#a51d1d" stroke="black"
                     points="1004.26,-142.45 1004.26,-168.35 953.29,-186.66 881.21,-186.66 830.25,-168.35 830.25,-142.45 881.21,-124.14 953.29,-124.14 1004.26,-142.45"/>
            <text text-anchor="middle" x="917.25" y="-163.9" font-family="Helvetica,sans-Serif" font-size="10.00"
                  fill="#ffffff">blender_shaper_origin.
            </text>
            <text text-anchor="middle" x="917.25" y="-152.9" font-family="Helvetica,sans-Serif" font-size="10.00"
                  fill="#ffffff">lib.
            </text>
            <text text-anchor="middle" x="917.25" y="-141.9" font-family="Helvetica,sans-Serif" font-size="10.00"
                  fill="#ffffff">body
            </text>
        </g>
        <!-- blender_shaper_origin_lib_body_mesh_body&#45;&gt;blender_shaper_origin_lib_body -->
        <g id="edge3" class="edge">
            <title>blender_shaper_origin_lib_body_mesh_body&#45;&gt;blender_shaper_origin_lib_body</title>
            <style>.edge>path:hover{stroke-width:8}</style>
            <path fill="none" stroke="black" d="M910.81,-79.58C910.42,-90.58 910.4,-102.6 910.75,-113.72"/>
            <polygon fill="#913030" stroke="black" points="907.27,-114.2 911.2,-124.04 914.26,-113.89 907.27,-114.2"/>
        </g>
        <!-- blender_shaper_origin___init__&#45;&gt;blender_shaper_origin_operators -->
        <g id="edge16" class="edge">
            <title>blender_shaper_origin___init__&#45;&gt;blender_shaper_origin_operators</title>
            <style>.edge>path:hover{stroke-width:8}</style>
            <path fill="none" stroke="black" d="M524.64,-277.45C531.57,-288.2 540,-301.27 547.53,-312.93"/>
            <polygon fill="#964040" stroke="black"
                     points="544.71,-315.01 553.07,-321.52 550.59,-311.22 544.71,-315.01"/>
        </g>
        <!-- blender_shaper_origin_lib_body&#45;&gt;blender_shaper_origin_lib_body_mesh_body -->
        <g id="edge4" class="edge">
            <title>blender_shaper_origin_lib_body&#45;&gt;blender_shaper_origin_lib_body_mesh_body</title>
            <style>.edge>path:hover{stroke-width:8}</style>
            <path fill="none" stroke="black" d="M923.3,-124.04C923.9,-113.48 924.12,-101.34 923.94,-89.67"/>
            <polygon fill="#a51d1d" stroke="black" points="927.44,-89.48 923.69,-79.58 920.44,-89.66 927.44,-89.48"/>
        </g>
        <!-- blender_shaper_origin&#45;&gt;blender_shaper_origin_properties -->
        <g id="edge17" class="edge">
            <title>blender_shaper_origin&#45;&gt;blender_shaper_origin_properties</title>
            <style>.edge>path:hover{stroke-width:8}</style>
            <path fill="none" stroke="black" d="M729.27,-137.11C731.1,-120.13 731.48,-93.82 730.4,-72.99"/>
            <polygon fill="#d10505" stroke="black" points="733.89,-72.72 729.73,-62.97 726.91,-73.18 733.89,-72.72"/>
        </g>
        <!-- blender_shaper_origin_lib_shape_mesh_shape -->
        <g id="node12" class="node">
            <title>blender_shaper_origin_lib_shape_mesh_shape</title>
            <style>.edge>path:hover{stroke-width:8}</style>
            <polygon fill="#a32828" stroke="black"
                     points="174.26,-435.27 174.26,-468.08 123.29,-491.28 51.21,-491.28 0.25,-468.08 0.25,-435.27 51.21,-412.08 123.29,-412.08 174.26,-435.27"/>
            <text text-anchor="middle" x="87.25" y="-465.68" font-family="Helvetica,sans-Serif" font-size="10.00"
                  fill="#ffffff">blender_shaper_origin.
            </text>
            <text text-anchor="middle" x="87.25" y="-454.68" font-family="Helvetica,sans-Serif" font-size="10.00"
                  fill="#ffffff">lib.
            </text>
            <text text-anchor="middle" x="87.25" y="-443.68" font-family="Helvetica,sans-Serif" font-size="10.00"
                  fill="#ffffff">shape.
            </text>
            <text text-anchor="middle" x="87.25" y="-432.68" font-family="Helvetica,sans-Serif" font-size="10.00"
                  fill="#ffffff">mesh_shape
            </text>
        </g>
        <!-- blender_shaper_origin_lib_shape_mesh_shape&#45;&gt;blender_shaper_origin_lib_shape -->
        <g id="edge13" class="edge">
            <title>blender_shaper_origin_lib_shape_mesh_shape&#45;&gt;blender_shaper_origin_lib_shape</title>
            <style>.edge>path:hover{stroke-width:8}</style>
            <path fill="none" stroke="black" d="M108.1,-412.07C111.58,-403.42 115.01,-394.21 118,-385.5"/>
            <polygon fill="#a32828" stroke="black" points="121.35,-386.51 121.16,-375.92 114.7,-384.32 121.35,-386.51"/>
        </g>
        <!-- blender_shaper_origin_lib_shape&#45;&gt;blender_shaper_origin_lib_shape_mesh_shape -->
        <g id="edge14" class="edge">
            <title>blender_shaper_origin_lib_shape&#45;&gt;blender_shaper_origin_lib_shape_mesh_shape</title>
            <style>.edge>path:hover{stroke-width:8}</style>
            <path fill="none" stroke="black" d="M108.79,-375.92C105.27,-384.21 101.68,-393.39 98.42,-402.41"/>
            <polygon fill="#db0505" stroke="black" points="95.04,-401.48 95.03,-412.07 101.64,-403.8 95.04,-401.48"/>
        </g>
        <!-- blender_shaper_origin_lib_shape_perimeter -->
        <g id="node15" class="node">
            <title>blender_shaper_origin_lib_shape_perimeter</title>
            <style>.edge>path:hover{stroke-width:8}</style>
            <polygon fill="#a51d1d" stroke="black"
                     points="367.26,-435.27 367.26,-468.08 316.29,-491.28 244.21,-491.28 193.25,-468.08 193.25,-435.27 244.21,-412.08 316.29,-412.08 367.26,-435.27"/>
            <text text-anchor="middle" x="280.25" y="-465.68" font-family="Helvetica,sans-Serif" font-size="10.00"
                  fill="#ffffff">blender_shaper_origin.
            </text>
            <text text-anchor="middle" x="280.25" y="-454.68" font-family="Helvetica,sans-Serif" font-size="10.00"
                  fill="#ffffff">lib.
            </text>
            <text text-anchor="middle" x="280.25" y="-443.68" font-family="Helvetica,sans-Serif" font-size="10.00"
                  fill="#ffffff">shape.
            </text>
            <text text-anchor="middle" x="280.25" y="-432.68" font-family="Helvetica,sans-Serif" font-size="10.00"
                  fill="#ffffff">perimeter
            </text>
        </g>
        <!-- blender_shaper_origin_lib_shape&#45;&gt;blender_shaper_origin_lib_shape_perimeter -->
        <g id="edge15" class="edge">
            <title>blender_shaper_origin_lib_shape&#45;&gt;blender_shaper_origin_lib_shape_perimeter</title>
            <style>.edge>path:hover{stroke-width:8}</style>
            <path fill="none" stroke="black" d="M167.93,-373.96C185,-385.62 205.03,-399.3 223.41,-411.85"/>
            <polygon fill="#db0505" stroke="black" points="221.49,-414.78 231.72,-417.53 225.44,-409 221.49,-414.78"/>
        </g>
        <!-- blender_shaper_origin_lib_object_types_bounding&#45;&gt;blender_shaper_origin_lib_project -->
        <g id="edge11" class="edge">
            <title>blender_shaper_origin_lib_object_types_bounding&#45;&gt;blender_shaper_origin_lib_project</title>
            <style>.edge>path:hover{stroke-width:8}</style>
            <path fill="none" stroke="black" d="M296.1,-759.72C304.11,-779.37 313.83,-803.18 321.91,-822.99"/>
            <polygon fill="#b81414" stroke="black"
                     points="318.71,-824.42 325.73,-832.36 325.19,-821.77 318.71,-824.42"/>
        </g>
        <!-- blender_shaper_origin_lib_shape_perimeter&#45;&gt;blender_shaper_origin_lib_object_types_reference -->
        <g id="edge10" class="edge">
            <title>blender_shaper_origin_lib_shape_perimeter&#45;&gt;blender_shaper_origin_lib_object_types_reference
            </title>
            <style>.edge>path:hover{stroke-width:8}</style>
            <path fill="none" stroke="black" d="M280.25,-491.46C280.25,-510.7 280.25,-534.13 280.25,-554.56"/>
            <polygon fill="#a51d1d" stroke="black"
                     points="276.75,-554.62 280.25,-564.62 283.75,-554.62 276.75,-554.62"/>
        </g>
        <!-- blender_shaper_origin_lib_shape_perimeter&#45;&gt;blender_shaper_origin_lib_object_types_preview -->
        <g id="edge9" class="edge">
            <title>blender_shaper_origin_lib_shape_perimeter&#45;&gt;blender_shaper_origin_lib_object_types_preview
            </title>
            <style>.edge>path:hover{stroke-width:8}</style>
            <path fill="none" stroke="black" d="M280.25,-411.82C280.25,-358.62 280.25,-263.13 280.25,-205.19"/>
            <polygon fill="#a51d1d" stroke="black"
                     points="283.75,-205.17 280.25,-195.17 276.75,-205.17 283.75,-205.17"/>
        </g>
    </g>
</svg>
