<?xml version="1.0" encoding="utf-8"?>
<!-- Generator: Blender SVG Export by Be Glass v0.1.0)  -->
<svg version="1.1" xmlns="http://www.w3.org/2000/svg" xmlns:xlink="http://www.w3.org/1999/xlink"
     xml:space="preserve" style="background-color:#d0d0d0" stroke-width="5%"
     width="211.20mm" height="260.94mm"
     viewBox="-50.00 -210.94 211.20 260.94">
<g transform="scale(1,-1)"><g class="Collection" id="Front"><g id="Front" class="MESH" stroke="black" fill="black"><path d="M59.98 140.15L69.98 140.15L79.98 140.15L89.98 140.15L99.98 140.15L109.98 140.15L119.98 140.15L129.98 140.15L139.98 140.15L149.98 140.15L159.98 140.15L159.98 150.15L156.11 150.15L156.00 150.05L155.75 149.89L155.48 149.77L155.19 149.72L154.89 149.72L154.60 149.77L154.33 149.89L154.08 150.05L153.98 150.15L153.88 150.26L153.71 150.50L153.60 150.78L153.54 151.07L153.54 151.36L153.60 151.65L153.71 151.93L153.88 152.17L153.98 152.29L153.98 158.02L153.88 158.14L153.71 158.38L153.60 158.66L153.54 158.95L153.54 159.24L153.60 159.53L153.71 159.80L153.88 160.05L153.98 160.15L154.08 160.26L154.33 160.42L154.60 160.54L154.89 160.59L155.19 160.59L155.48 160.54L155.75 160.42L156.00 160.26L156.11 160.15L159.98 160.15L159.98 170.15L156.11 170.15L156.00 170.05L155.75 169.89L155.48 169.77L155.19 169.72L154.89 169.72L154.60 169.77L154.33 169.89L154.08 170.05L153.98 170.15L153.88 170.26L153.71 170.50L153.60 170.78L153.54 171.07L153.54 171.36L153.60 171.65L153.71 171.93L153.88 172.17L153.98 172.29L153.98 178.02L153.88 178.14L153.71 178.38L153.60 178.66L153.54 178.95L153.54 179.24L153.60 179.53L153.71 179.80L153.88 180.05L153.98 180.15L154.08 180.26L154.33 180.42L154.60 180.54L154.89 180.59L155.19 180.59L155.48 180.54L155.75 180.42L156.00 180.26L156.11 180.15L159.98 180.15L159.98 190.15L156.10 190.15L156.00 190.05L155.75 189.89L155.48 189.77L155.19 189.72L154.89 189.72L154.60 189.77L154.33 189.89L154.08 190.05L153.98 190.15L153.88 190.26L153.71 190.50L153.60 190.78L153.54 191.07L153.54 191.36L153.60 191.65L153.71 191.93L153.88 192.17L153.98 192.29L153.98 198.02L153.88 198.14L153.71 198.38L153.60 198.66L153.54 198.95L153.54 199.24L153.60 199.53L153.71 199.80L153.88 200.05L153.98 200.15L154.08 200.26L154.33 200.42L154.60 200.54L154.89 200.59L155.19 200.59L155.48 200.54L155.75 200.42L156.00 200.26L156.11 200.15L159.98 200.15L159.98 210.15L149.98 210.15L139.98 210.15L129.98 210.15L119.98 210.15L109.98 210.15L99.98 210.15L89.98 210.15L79.98 210.15L69.98 210.15L59.98 210.15L59.98 200.15L63.85 200.15L63.96 200.26L64.21 200.42L64.48 200.54L64.77 200.59L65.07 200.59L65.36 200.54L65.63 200.42L65.88 200.26L65.98 200.15L66.08 200.05L66.25 199.80L66.36 199.53L66.42 199.24L66.42 198.95L66.36 198.66L66.25 198.38L66.08 198.14L65.98 198.02L65.98 192.29L66.08 192.17L66.25 191.93L66.36 191.65L66.42 191.36L66.42 191.07L66.36 190.78L66.25 190.50L66.08 190.26L65.98 190.15L65.88 190.05L65.63 189.89L65.36 189.77L65.07 189.72L64.77 189.72L64.48 189.77L64.21 189.89L63.96 190.05L63.86 190.15L59.98 190.15L59.98 180.15L63.85 180.15L63.96 180.26L64.21 180.42L64.48 180.54L64.77 180.59L65.07 180.59L65.36 180.54L65.63 180.42L65.88 180.26L65.98 180.15L66.08 180.05L66.25 179.80L66.36 179.53L66.42 179.24L66.42 178.95L66.36 178.66L66.25 178.38L66.08 178.14L65.98 178.02L65.98 172.29L66.08 172.17L66.25 171.93L66.36 171.65L66.42 171.36L66.42 171.07L66.36 170.78L66.25 170.50L66.08 170.26L65.98 170.15L65.88 170.05L65.63 169.89L65.36 169.77L65.07 169.72L64.77 169.72L64.48 169.77L64.21 169.89L63.96 170.05L63.85 170.15L59.98 170.15L59.98 160.15L63.86 160.15L63.96 160.26L64.21 160.42L64.48 160.54L64.77 160.59L65.07 160.59L65.36 160.54L65.63 160.42L65.88 160.26L65.98 160.15L66.08 160.05L66.25 159.80L66.36 159.53L66.42 159.24L66.42 158.95L66.36 158.66L66.25 158.38L66.08 158.14L65.98 158.02L65.98 152.29L66.08 152.17L66.25 151.93L66.36 151.65L66.42 151.36L66.42 151.07L66.36 150.78L66.25 150.50L66.08 150.26L65.98 150.15L65.88 150.05L65.63 149.89L65.36 149.77L65.07 149.72L64.77 149.72L64.48 149.77L64.21 149.89L63.96 150.05L63.85 150.15L59.98 150.15Z"/></g><g
        id="front_groove" class="MESH" stroke="none" fill="grey"><path d="M155.82 143.15L156.11 143.18L156.39 143.27L156.65 143.41L156.88 143.59L157.07 143.82L157.21 144.08L157.29 144.36L157.32 144.65L157.29 144.95L157.21 145.23L157.07 145.49L156.88 145.72L156.65 145.90L156.39 146.04L156.11 146.13L64.14 146.15L63.85 146.13L63.57 146.04L63.31 145.90L63.08 145.72L62.89 145.49L62.75 145.23L62.67 144.95L62.64 144.65L62.67 144.36L62.75 144.08L62.89 143.82L63.08 143.59L63.31 143.41L63.57 143.27L63.85 143.18Z"/></g></g>
    <g class="Collection" id="Right"><g id="Right" class="MESH" stroke="black" fill="black"><path d="M50.00 150.94L50.00 160.94L46.13 160.94L46.02 160.84L45.77 160.68L45.50 160.56L45.21 160.50L44.91 160.50L44.62 160.56L44.35 160.68L44.10 160.84L44.00 160.94L43.90 161.05L43.73 161.29L43.62 161.57L43.56 161.86L43.56 162.15L43.62 162.44L43.73 162.72L43.90 162.96L44.00 163.08L44.00 168.81L43.90 168.93L43.73 169.17L43.62 169.45L43.56 169.74L43.56 170.03L43.62 170.32L43.73 170.59L43.90 170.84L44.00 170.94L44.10 171.05L44.35 171.21L44.62 171.33L44.91 171.38L45.21 171.38L45.50 171.33L45.77 171.21L46.02 171.05L46.13 170.94L50.00 170.94L50.00 180.94L46.13 180.94L46.02 180.84L45.77 180.68L45.50 180.56L45.21 180.50L44.91 180.50L44.62 180.56L44.35 180.68L44.10 180.84L44.00 180.94L43.90 181.05L43.73 181.29L43.62 181.57L43.56 181.86L43.56 182.15L43.62 182.44L43.73 182.72L43.90 182.96L44.00 183.08L44.00 188.81L43.90 188.93L43.73 189.17L43.62 189.45L43.56 189.74L43.56 190.03L43.62 190.32L43.73 190.59L43.90 190.84L44.00 190.94L44.10 191.05L44.35 191.21L44.62 191.33L44.91 191.38L45.21 191.38L45.50 191.33L45.77 191.21L46.02 191.05L46.13 190.94L50.00 190.94L50.00 200.94L46.13 200.94L46.02 200.84L45.77 200.68L45.50 200.56L45.21 200.50L44.91 200.50L44.62 200.56L44.35 200.68L44.10 200.84L44.00 200.94L43.90 201.05L43.73 201.29L43.62 201.57L43.56 201.86L43.56 202.15L43.62 202.44L43.73 202.72L43.90 202.96L44.00 203.08L44.00 210.94L30.00 210.94L20.00 210.94L10.00 210.94L0.00 210.94L-10.00 210.94L-20.00 210.94L-30.00 210.94L-44.00 210.94L-44.00 203.08L-43.90 202.96L-43.73 202.72L-43.62 202.44L-43.56 202.15L-43.56 201.86L-43.62 201.57L-43.73 201.29L-43.90 201.05L-44.00 200.94L-44.10 200.84L-44.35 200.68L-44.62 200.56L-44.91 200.50L-45.21 200.50L-45.50 200.56L-45.77 200.68L-46.02 200.84L-46.13 200.94L-50.00 200.94L-50.00 190.94L-46.12 190.94L-46.02 191.05L-45.77 191.21L-45.50 191.33L-45.21 191.38L-44.91 191.38L-44.62 191.33L-44.35 191.21L-44.10 191.05L-44.00 190.94L-43.90 190.84L-43.73 190.59L-43.62 190.32L-43.56 190.03L-43.56 189.74L-43.62 189.45L-43.73 189.17L-43.90 188.93L-44.00 188.81L-44.00 183.08L-43.90 182.96L-43.73 182.72L-43.62 182.44L-43.56 182.15L-43.56 181.86L-43.62 181.57L-43.73 181.29L-43.90 181.05L-44.00 180.94L-44.10 180.84L-44.35 180.68L-44.62 180.56L-44.91 180.50L-45.21 180.50L-45.50 180.56L-45.77 180.68L-46.02 180.84L-46.13 180.94L-50.00 180.94L-50.00 170.94L-46.13 170.94L-46.02 171.05L-45.77 171.21L-45.50 171.33L-45.21 171.38L-44.91 171.38L-44.62 171.33L-44.35 171.21L-44.10 171.05L-44.00 170.94L-43.90 170.84L-43.73 170.59L-43.62 170.32L-43.56 170.03L-43.56 169.74L-43.62 169.45L-43.73 169.17L-43.90 168.93L-44.00 168.81L-44.00 163.08L-43.90 162.96L-43.73 162.72L-43.62 162.44L-43.56 162.15L-43.56 161.86L-43.62 161.57L-43.73 161.29L-43.90 161.05L-44.00 160.94L-44.10 160.84L-44.35 160.68L-44.62 160.56L-44.91 160.50L-45.21 160.50L-45.50 160.56L-45.77 160.68L-46.02 160.84L-46.13 160.94L-50.00 160.94L-50.00 150.94L-46.13 150.94L-46.02 151.05L-45.77 151.21L-45.50 151.33L-45.21 151.38L-44.91 151.38L-44.62 151.33L-44.35 151.21L-44.10 151.05L-44.00 150.94L-43.90 150.84L-43.73 150.59L-43.62 150.32L-43.56 150.03L-43.56 149.74L-43.62 149.45L-43.73 149.17L-43.90 148.93L-44.00 148.81L-44.00 140.94L-30.00 140.94L-20.00 140.94L-10.00 140.94L0.00 140.94L10.00 140.94L20.00 140.94L30.00 140.94L44.00 140.94L44.00 148.81L43.90 148.93L43.73 149.17L43.62 149.45L43.56 149.74L43.56 150.03L43.62 150.32L43.73 150.59L43.90 150.84L44.00 150.94L44.10 151.05L44.35 151.21L44.62 151.33L44.91 151.38L45.21 151.38L45.50 151.33L45.77 151.21L46.02 151.05L46.13 150.94Z"/></g>
        <g id="right_groove" class="MESH" stroke="none" fill="grey"><path d="M45.84 143.94L46.13 143.99L46.41 144.11L46.67 144.31L46.90 144.57L47.09 144.90L47.23 145.27L47.31 145.67L47.34 144.80L47.31 145.22L47.23 145.62L47.09 145.99L46.90 146.32L46.67 146.58L46.41 146.78L46.13 146.90L-45.84 146.94L-46.13 146.90L-46.41 146.78L-46.67 146.58L-46.90 146.32L-47.09 145.99L-47.23 145.62L-47.31 145.22L-47.34 146.09L-47.31 145.67L-47.23 145.27L-47.09 144.90L-46.90 144.57L-46.67 144.31L-46.41 144.11L-46.13 143.99Z"/></g></g>
    <g class="Collection" id="Back"><g id="Back" class="MESH" stroke="black" fill="black"><path d="M60.58 60.12L70.58 60.12L80.58 60.12L90.58 60.12L100.58 60.12L110.58 60.12L120.58 60.12L130.58 60.12L140.58 60.12L150.58 60.12L160.58 60.12L160.58 70.12L156.71 70.12L156.60 70.01L156.35 69.85L156.08 69.74L155.79 69.68L155.49 69.68L155.20 69.74L154.93 69.85L154.69 70.01L154.58 70.12L154.48 70.22L154.31 70.47L154.20 70.74L154.14 71.03L154.14 71.33L154.20 71.62L154.31 71.89L154.48 72.13L154.58 72.25L154.58 77.99L154.48 78.10L154.31 78.35L154.20 78.62L154.14 78.91L154.14 79.20L154.20 79.49L154.31 79.77L154.48 80.01L154.58 80.12L154.69 80.22L154.93 80.39L155.20 80.50L155.49 80.56L155.79 80.56L156.08 80.50L156.35 80.39L156.60 80.22L156.71 80.12L160.58 80.12L160.58 90.12L156.71 90.12L156.60 90.01L156.35 89.85L156.08 89.74L155.79 89.68L155.49 89.68L155.20 89.74L154.93 89.85L154.69 90.01L154.58 90.12L154.48 90.22L154.31 90.47L154.20 90.74L154.14 91.03L154.14 91.33L154.20 91.62L154.31 91.89L154.48 92.13L154.58 92.25L154.58 97.99L154.48 98.10L154.31 98.35L154.20 98.62L154.14 98.91L154.14 99.20L154.20 99.49L154.31 99.77L154.48 100.01L154.58 100.12L154.69 100.22L154.93 100.39L155.20 100.50L155.49 100.56L155.79 100.56L156.08 100.50L156.35 100.39L156.60 100.22L156.71 100.12L160.58 100.12L160.58 110.12L156.70 110.12L156.60 110.01L156.35 109.85L156.08 109.74L155.79 109.68L155.49 109.68L155.20 109.74L154.93 109.85L154.69 110.01L154.58 110.12L154.48 110.22L154.31 110.47L154.20 110.74L154.14 111.03L154.14 111.33L154.20 111.62L154.31 111.89L154.48 112.13L154.58 112.25L154.58 117.99L154.48 118.10L154.31 118.35L154.20 118.62L154.14 118.91L154.14 119.20L154.20 119.49L154.31 119.77L154.48 120.01L154.58 120.12L154.69 120.22L154.93 120.39L155.20 120.50L155.49 120.56L155.79 120.56L156.08 120.50L156.35 120.39L156.60 120.22L156.71 120.12L160.58 120.12L160.58 130.12L150.58 130.12L140.58 130.12L130.58 130.12L120.58 130.12L110.58 130.12L100.58 130.12L90.58 130.12L80.58 130.12L70.58 130.12L60.58 130.12L60.58 120.12L64.45 120.12L64.56 120.22L64.81 120.39L65.08 120.50L65.37 120.56L65.67 120.56L65.96 120.50L66.23 120.39L66.48 120.22L66.58 120.12L66.69 120.01L66.85 119.77L66.96 119.49L67.02 119.20L67.02 118.91L66.96 118.62L66.85 118.35L66.69 118.10L66.58 117.99L66.58 112.25L66.69 112.13L66.85 111.89L66.96 111.62L67.02 111.33L67.02 111.03L66.96 110.74L66.85 110.47L66.69 110.22L66.58 110.12L66.48 110.01L66.23 109.85L65.96 109.74L65.67 109.68L65.37 109.68L65.08 109.74L64.81 109.85L64.56 110.01L64.46 110.12L60.58 110.12L60.58 100.12L64.45 100.12L64.56 100.22L64.81 100.39L65.08 100.50L65.37 100.56L65.67 100.56L65.96 100.50L66.23 100.39L66.48 100.22L66.58 100.12L66.69 100.01L66.85 99.77L66.96 99.49L67.02 99.20L67.02 98.91L66.96 98.62L66.85 98.35L66.69 98.10L66.58 97.99L66.58 92.25L66.69 92.13L66.85 91.89L66.96 91.62L67.02 91.33L67.02 91.03L66.96 90.74L66.85 90.47L66.69 90.22L66.58 90.12L66.48 90.01L66.23 89.85L65.96 89.74L65.67 89.68L65.37 89.68L65.08 89.74L64.81 89.85L64.56 90.01L64.45 90.12L60.58 90.12L60.58 80.12L64.46 80.12L64.56 80.22L64.81 80.39L65.08 80.50L65.37 80.56L65.67 80.56L65.96 80.50L66.23 80.39L66.48 80.22L66.58 80.12L66.69 80.01L66.85 79.77L66.96 79.49L67.02 79.20L67.02 78.91L66.96 78.62L66.85 78.35L66.69 78.10L66.58 77.99L66.58 72.25L66.69 72.13L66.85 71.89L66.96 71.62L67.02 71.33L67.02 71.03L66.96 70.74L66.85 70.47L66.69 70.22L66.58 70.12L66.48 70.01L66.23 69.85L65.96 69.74L65.67 69.68L65.37 69.68L65.08 69.74L64.81 69.85L64.56 70.01L64.45 70.12L60.58 70.12Z"/></g>
        <g id="back_groove" class="MESH" stroke="none" fill="grey"><path d="M156.42 63.12L156.71 63.16L157.00 63.28L157.25 63.48L157.48 63.75L157.67 64.07L157.81 64.44L157.89 64.84L157.92 63.97L157.89 64.39L157.81 64.79L157.67 65.17L157.48 65.49L157.25 65.76L157.00 65.95L156.71 66.08L64.74 66.12L64.45 66.08L64.17 65.95L63.91 65.76L63.68 65.49L63.49 65.17L63.36 64.79L63.27 64.39L63.24 65.26L63.27 64.84L63.36 64.44L63.49 64.07L63.68 63.75L63.91 63.48L64.17 63.28L64.45 63.16Z"/></g></g>
    <g class="Collection" id="Left"><g id="Left" class="MESH" stroke="black" fill="black"><path d="M50.00 68.70L50.00 78.70L46.13 78.70L46.02 78.59L45.77 78.43L45.50 78.32L45.21 78.26L44.91 78.26L44.62 78.32L44.35 78.43L44.10 78.59L44.00 78.70L43.90 78.80L43.73 79.05L43.62 79.32L43.56 79.61L43.56 79.91L43.62 80.19L43.73 80.47L43.90 80.71L44.00 80.83L44.00 86.57L43.90 86.68L43.73 86.93L43.62 87.20L43.56 87.49L43.56 87.78L43.62 88.07L43.73 88.35L43.90 88.59L44.00 88.70L44.10 88.80L44.35 88.97L44.62 89.08L44.91 89.14L45.21 89.14L45.50 89.08L45.77 88.97L46.02 88.80L46.13 88.70L50.00 88.70L50.00 98.70L46.13 98.70L46.02 98.59L45.77 98.43L45.50 98.32L45.21 98.26L44.91 98.26L44.62 98.32L44.35 98.43L44.10 98.59L44.00 98.70L43.90 98.80L43.73 99.05L43.62 99.32L43.56 99.61L43.56 99.91L43.62 100.19L43.73 100.47L43.90 100.71L44.00 100.83L44.00 106.57L43.90 106.68L43.73 106.93L43.62 107.20L43.56 107.49L43.56 107.78L43.62 108.07L43.73 108.35L43.90 108.59L44.00 108.70L44.10 108.80L44.35 108.97L44.62 109.08L44.91 109.14L45.21 109.14L45.50 109.08L45.77 108.97L46.02 108.80L46.13 108.70L50.00 108.70L50.00 118.70L46.13 118.70L46.02 118.59L45.77 118.43L45.50 118.32L45.21 118.26L44.91 118.26L44.62 118.32L44.35 118.43L44.10 118.59L44.00 118.70L43.90 118.80L43.73 119.05L43.62 119.32L43.56 119.61L43.56 119.91L43.62 120.19L43.73 120.47L43.90 120.71L44.00 120.83L44.00 128.70L30.00 128.70L20.00 128.70L10.00 128.70L-0.00 128.70L-10.00 128.70L-20.00 128.70L-30.00 128.70L-44.00 128.70L-44.00 120.83L-43.90 120.71L-43.73 120.47L-43.62 120.19L-43.56 119.91L-43.56 119.61L-43.62 119.32L-43.73 119.05L-43.90 118.80L-44.00 118.70L-44.10 118.59L-44.35 118.43L-44.62 118.32L-44.91 118.26L-45.21 118.26L-45.50 118.32L-45.77 118.43L-46.02 118.59L-46.13 118.70L-50.00 118.70L-50.00 108.70L-46.12 108.70L-46.02 108.80L-45.77 108.97L-45.50 109.08L-45.21 109.14L-44.91 109.14L-44.62 109.08L-44.35 108.97L-44.10 108.80L-44.00 108.70L-43.90 108.59L-43.73 108.35L-43.62 108.07L-43.56 107.78L-43.56 107.49L-43.62 107.20L-43.73 106.93L-43.90 106.68L-44.00 106.57L-44.00 100.83L-43.90 100.71L-43.73 100.47L-43.62 100.19L-43.56 99.91L-43.56 99.61L-43.62 99.32L-43.73 99.05L-43.90 98.80L-44.00 98.70L-44.10 98.59L-44.35 98.43L-44.62 98.32L-44.91 98.26L-45.21 98.26L-45.50 98.32L-45.77 98.43L-46.02 98.59L-46.13 98.70L-50.00 98.70L-50.00 88.70L-46.13 88.70L-46.02 88.80L-45.77 88.97L-45.50 89.08L-45.21 89.14L-44.91 89.14L-44.62 89.08L-44.35 88.97L-44.10 88.80L-44.00 88.70L-43.90 88.59L-43.73 88.35L-43.62 88.07L-43.56 87.78L-43.56 87.49L-43.62 87.20L-43.73 86.93L-43.90 86.68L-44.00 86.57L-44.00 80.83L-43.90 80.71L-43.73 80.47L-43.62 80.19L-43.56 79.91L-43.56 79.61L-43.62 79.32L-43.73 79.05L-43.90 78.80L-44.00 78.70L-44.10 78.59L-44.35 78.43L-44.62 78.32L-44.91 78.26L-45.21 78.26L-45.50 78.32L-45.77 78.43L-46.02 78.59L-46.13 78.70L-50.00 78.70L-50.00 68.70L-46.13 68.70L-46.02 68.80L-45.77 68.97L-45.50 69.08L-45.21 69.14L-44.91 69.14L-44.62 69.08L-44.35 68.97L-44.10 68.80L-44.00 68.70L-43.90 68.59L-43.73 68.35L-43.62 68.07L-43.56 67.78L-43.56 67.49L-43.62 67.20L-43.73 66.93L-43.90 66.68L-44.00 66.57L-44.00 58.70L-30.00 58.70L-20.00 58.70L-10.00 58.70L-0.00 58.70L10.00 58.70L20.00 58.70L30.00 58.70L44.00 58.70L44.00 66.57L43.90 66.68L43.73 66.93L43.62 67.20L43.56 67.49L43.56 67.78L43.62 68.07L43.73 68.35L43.90 68.59L44.00 68.70L44.10 68.80L44.35 68.97L44.62 69.08L44.91 69.14L45.21 69.14L45.50 69.08L45.77 68.97L46.02 68.80L46.13 68.70Z"/></g>
        <g id="left_groove" class="MESH" stroke="none" fill="grey"><path d="M45.84 61.70L46.13 61.74L46.41 61.86L46.67 62.06L46.90 62.32L47.09 62.65L47.23 63.02L47.31 63.42L47.34 62.55L47.31 62.97L47.23 63.37L47.09 63.74L46.90 64.07L46.67 64.34L46.41 64.53L46.13 64.66L-45.84 64.70L-46.13 64.66L-46.41 64.53L-46.67 64.34L-46.90 64.07L-47.09 63.74L-47.23 63.37L-47.31 62.97L-47.34 63.84L-47.31 63.42L-47.23 63.02L-47.09 62.65L-46.90 62.32L-46.67 62.06L-46.41 61.86L-46.13 61.74Z"/></g></g>
    <g class="Collection" id="Bottom"><g id="Plane" class="MESH" stroke="black" fill="black"><path d="M47.00 -47.00L47.00 47.00L-47.00 47.00L-47.00 -47.00Z"/></g></g>
    <g class="Collection" id="Lid"><g id="lid" class="MESH" stroke="black" fill="black"><path d="M161.20 -50.00L161.20 50.00L61.20 50.00L61.20 -50.00Z"/></g>
        <g id="step" class="CURVE" stroke="black" fill="black"><path d="M64.20 -47.00L158.20 -47.00L158.20 47.00L64.20 47.00Z"/></g>
        <g id="Circle" class="MESH" stroke="none" fill="grey"><path d="M109.12 10.80L109.11 10.80L109.09 10.79L109.07 10.79L109.05 10.79L109.03 10.78L109.02 10.78L109.00 10.78L108.08 10.54L108.06 10.54L108.04 10.53L108.02 10.53L108.01 10.52L107.99 10.52L107.97 10.51L107.95 10.51L107.06 10.19L107.04 10.18L107.02 10.17L107.01 10.17L106.99 10.16L106.97 10.15L106.95 10.15L106.94 10.14L106.08 9.73L106.06 9.72L106.05 9.72L106.03 9.71L106.01 9.70L106.00 9.69L105.98 9.68L105.96 9.67L105.15 9.18L105.13 9.17L105.12 9.16L105.10 9.15L105.09 9.14L105.07 9.13L105.06 9.12L105.04 9.11L104.28 8.55L104.26 8.54L104.25 8.52L104.23 8.51L104.22 8.50L104.21 8.49L104.19 8.48L104.18 8.47L103.47 7.83L103.46 7.82L103.45 7.80L103.43 7.79L103.42 7.78L103.41 7.76L103.40 7.75L103.38 7.74L102.74 7.03L102.73 7.02L102.72 7.01L102.71 6.99L102.70 6.98L102.68 6.96L102.67 6.95L102.66 6.93L102.10 6.17L102.08 6.16L102.07 6.14L102.06 6.13L102.05 6.11L102.04 6.09L102.03 6.08L102.02 6.06L101.53 5.25L101.53 5.23L101.52 5.22L101.51 5.20L101.50 5.18L101.49 5.17L101.48 5.15L101.47 5.14L101.07 4.28L101.06 4.26L101.05 4.24L101.04 4.23L101.04 4.21L101.03 4.19L101.02 4.17L101.02 4.16L100.70 3.26L100.69 3.25L100.68 3.23L100.68 3.21L100.67 3.19L100.67 3.17L100.66 3.16L100.66 3.14L100.43 2.22L100.42 2.20L100.42 2.18L100.41 2.16L100.41 2.15L100.41 2.13L100.40 2.11L100.40 2.09L100.26 1.15L100.26 1.13L100.26 1.11L100.25 1.10L100.25 1.08L100.25 1.06L100.25 1.04L100.25 1.02L100.20 0.07L100.20 0.06L100.20 0.04L100.20 0.02L100.20 -0.00L100.20 -0.02L100.20 -0.04L100.20 -0.06L100.25 -1.00L100.25 -1.02L100.25 -1.04L100.25 -1.06L100.25 -1.08L100.25 -1.10L100.26 -1.11L100.26 -1.13L100.40 -2.07L100.40 -2.09L100.40 -2.11L100.41 -2.13L100.41 -2.15L100.41 -2.16L100.42 -2.18L100.42 -2.20L100.65 -3.12L100.66 -3.14L100.66 -3.16L100.67 -3.17L100.67 -3.19L100.68 -3.21L100.68 -3.23L100.69 -3.25L101.01 -4.14L101.02 -4.16L101.02 -4.17L101.03 -4.19L101.04 -4.21L101.04 -4.23L101.05 -4.24L101.06 -4.26L101.47 -5.12L101.47 -5.14L101.48 -5.15L101.49 -5.17L101.50 -5.18L101.51 -5.20L101.52 -5.22L101.53 -5.23L102.01 -6.05L102.02 -6.06L102.03 -6.08L102.04 -6.09L102.05 -6.11L102.06 -6.13L102.07 -6.14L102.08 -6.16L102.65 -6.92L102.66 -6.93L102.67 -6.95L102.68 -6.96L102.70 -6.98L102.71 -6.99L102.72 -7.01L102.73 -7.02L103.37 -7.72L103.38 -7.74L103.40 -7.75L103.41 -7.76L103.42 -7.78L103.43 -7.79L103.45 -7.80L103.46 -7.82L104.16 -8.45L104.18 -8.47L104.19 -8.48L104.21 -8.49L104.22 -8.50L104.23 -8.51L104.25 -8.52L104.26 -8.54L105.03 -9.10L105.04 -9.11L105.06 -9.12L105.07 -9.13L105.09 -9.14L105.10 -9.15L105.12 -9.16L105.13 -9.17L105.95 -9.66L105.96 -9.67L105.98 -9.68L106.00 -9.69L106.01 -9.70L106.03 -9.71L106.05 -9.72L106.06 -9.72L106.92 -10.13L106.94 -10.14L106.95 -10.15L106.97 -10.15L106.99 -10.16L107.01 -10.17L107.02 -10.17L107.04 -10.18L107.94 -10.50L107.95 -10.51L107.97 -10.51L107.99 -10.52L108.01 -10.52L108.02 -10.53L108.04 -10.53L108.06 -10.54L108.98 -10.77L109.00 -10.78L109.02 -10.78L109.03 -10.78L109.05 -10.79L109.07 -10.79L109.09 -10.79L109.11 -10.80L110.05 -10.94L110.06 -10.94L110.08 -10.94L110.10 -10.94L110.12 -10.95L110.14 -10.95L110.16 -10.95L110.17 -10.95L111.12 -11.00L111.14 -11.00L111.16 -11.00L111.18 -11.00L111.20 -11.00L111.22 -11.00L111.23 -11.00L111.25 -11.00L112.20 -10.95L112.22 -10.95L112.24 -10.95L112.26 -10.95L112.28 -10.95L112.29 -10.94L112.31 -10.94L112.33 -10.94L113.27 -10.80L113.29 -10.80L113.31 -10.79L113.33 -10.79L113.34 -10.79L113.36 -10.78L113.38 -10.78L113.40 -10.78L114.32 -10.54L114.34 -10.54L114.35 -10.53L114.37 -10.53L114.39 -10.52L114.41 -10.52L114.43 -10.51L114.44 -10.51L115.34 -10.19L115.36 -10.18L115.37 -10.17L115.39 -10.17L115.41 -10.16L115.42 -10.15L115.44 -10.15L115.46 -10.14L116.32 -9.73L116.33 -9.72L116.35 -9.72L116.37 -9.71L116.38 -9.70L116.40 -9.69L116.41 -9.68L116.43 -9.67L117.25 -9.18L117.26 -9.17L117.28 -9.16L117.29 -9.15L117.31 -9.14L117.32 -9.13L117.34 -9.12L117.35 -9.11L118.12 -8.55L118.13 -8.54L118.15 -8.52L118.16 -8.51L118.17 -8.50L118.19 -8.49L118.20 -8.48L118.22 -8.47L118.92 -7.83L118.93 -7.82L118.95 -7.80L118.96 -7.79L118.97 -7.78L118.99 -7.76L119.00 -7.75L119.01 -7.74L119.65 -7.03L119.66 -7.02L119.68 -7.01L119.69 -6.99L119.70 -6.98L119.71 -6.96L119.72 -6.95L119.73 -6.93L120.30 -6.17L120.31 -6.16L120.32 -6.14L120.33 -6.13L120.34 -6.11L120.35 -6.09L120.36 -6.08L120.37 -6.06L120.86 -5.25L120.87 -5.23L120.88 -5.22L120.89 -5.20L120.90 -5.18L120.91 -5.17L120.91 -5.15L120.92 -5.14L121.33 -4.28L121.34 -4.26L121.34 -4.24L121.35 -4.23L121.36 -4.21L121.37 -4.19L121.37 -4.17L121.38 -4.16L121.70 -3.26L121.71 -3.25L121.71 -3.23L121.72 -3.21L121.72 -3.19L121.73 -3.17L121.73 -3.16L121.74 -3.14L121.97 -2.22L121.97 -2.20L121.98 -2.18L121.98 -2.16L121.98 -2.15L121.99 -2.13L121.99 -2.11L121.99 -2.09L122.13 -1.15L122.14 -1.13L122.14 -1.11L122.14 -1.10L122.14 -1.08L122.14 -1.06L122.15 -1.04L122.15 -1.02L122.19 -0.07L122.19 -0.06L122.20 -0.04L122.20 -0.02L122.20 -0.00L122.20 0.02L122.20 0.04L122.19 0.06L122.15 1.00L122.15 1.02L122.15 1.04L122.14 1.06L122.14 1.08L122.14 1.10L122.14 1.11L122.14 1.13L122.00 2.07L121.99 2.09L121.99 2.11L121.99 2.13L121.98 2.15L121.98 2.16L121.98 2.18L121.97 2.20L121.74 3.12L121.74 3.14L121.73 3.16L121.73 3.17L121.72 3.19L121.72 3.21L121.71 3.23L121.71 3.25L121.39 4.14L121.38 4.16L121.37 4.17L121.37 4.19L121.36 4.21L121.35 4.23L121.34 4.24L121.34 4.26L120.93 5.12L120.92 5.14L120.91 5.15L120.91 5.17L120.90 5.18L120.89 5.20L120.88 5.22L120.87 5.23L120.38 6.05L120.37 6.06L120.36 6.08L120.35 6.09L120.34 6.11L120.33 6.13L120.32 6.14L120.31 6.16L119.74 6.92L119.73 6.93L119.72 6.95L119.71 6.96L119.70 6.98L119.69 6.99L119.68 7.01L119.66 7.02L119.03 7.72L119.01 7.74L119.00 7.75L118.99 7.76L118.97 7.78L118.96 7.79L118.95 7.80L118.93 7.82L118.23 8.45L118.22 8.47L118.20 8.48L118.19 8.49L118.17 8.50L118.16 8.51L118.15 8.52L118.13 8.54L117.37 9.10L117.35 9.11L117.34 9.12L117.32 9.13L117.31 9.14L117.29 9.15L117.28 9.16L117.26 9.17L116.45 9.66L116.43 9.67L116.41 9.68L116.40 9.69L116.38 9.70L116.37 9.71L116.35 9.72L116.33 9.72L115.47 10.13L115.46 10.14L115.44 10.15L115.42 10.15L115.41 10.16L115.39 10.17L115.37 10.17L115.36 10.18L114.46 10.50L114.44 10.51L114.43 10.51L114.41 10.52L114.39 10.52L114.37 10.53L114.35 10.53L114.34 10.54L113.42 10.77L113.40 10.78L113.38 10.78L113.36 10.78L113.34 10.79L113.33 10.79L113.31 10.79L113.29 10.80L112.35 10.94L112.33 10.94L112.31 10.94L112.29 10.94L112.28 10.95L112.26 10.95L112.24 10.95L112.22 10.95L111.27 11.00L111.25 11.00L111.23 11.00L111.22 11.00L111.20 11.00L111.18 11.00L111.16 11.00L111.14 11.00L110.19 10.95L110.17 10.95L110.16 10.95L110.14 10.95L110.12 10.95L110.10 10.94L110.08 10.94L110.06 10.94Z"/></g></g></g></svg>
